<svg id="_ÎÓÈ_1" data-name="—ÎÓÈ_1" xmlns="http://www.w3.org/2000/svg" xmlns:xlink="http://www.w3.org/1999/xlink" viewBox="0 0 512.35 759.33"><defs><style>.cls-1{fill:#915863;}.cls-2{fill:url(#_ÂÁ_Ï_ÌÌ_È_ËÂÌÚ_15);}.cls-3{fill:url(#_ÂÁ_Ï_ÌÌ_È_ËÂÌÚ_74);}.cls-4{fill:url(#_ÂÁ_Ï_ÌÌ_È_ËÂÌÚ_3);}.cls-5{fill:url(#_ÂÁ_Ï_ÌÌ_È_ËÂÌÚ_73);}.cls-6{fill:url(#_ÂÁ_Ï_ÌÌ_È_ËÂÌÚ_73-2);}.cls-7{fill:url(#_ÂÁ_Ï_ÌÌ_È_ËÂÌÚ_74-2);}.cls-8{fill:url(#_ÂÁ_Ï_ÌÌ_È_ËÂÌÚ_74-3);}.cls-9{fill:url(#_ÂÁ_Ï_ÌÌ_È_ËÂÌÚ_9);}.cls-10{fill:url(#_ÂÁ_Ï_ÌÌ_È_ËÂÌÚ_30);}.cls-11{fill:url(#_ÂÁ_Ï_ÌÌ_È_ËÂÌÚ_11);}.cls-12{fill:url(#_ÂÁ_Ï_ÌÌ_È_ËÂÌÚ_12);}.cls-13{fill:url(#_ÂÁ_Ï_ÌÌ_È_ËÂÌÚ_13);}.cls-14{fill:url(#_ÂÁ_Ï_ÌÌ_È_ËÂÌÚ_14);}.cls-15{fill:url(#_ÂÁ_Ï_ÌÌ_È_ËÂÌÚ_15-2);}.cls-16{fill:url(#_ÂÁ_Ï_ÌÌ_È_ËÂÌÚ_74-4);}.cls-17{fill:url(#_ÂÁ_Ï_ÌÌ_È_ËÂÌÚ_73-3);}.cls-18{fill:url(#_ÂÁ_Ï_ÌÌ_È_ËÂÌÚ_31);}.cls-19{fill:url(#_ÂÁ_Ï_ÌÌ_È_ËÂÌÚ_144);}.cls-20{fill:url(#_ÂÁ_Ï_ÌÌ_È_ËÂÌÚ_142);}.cls-21{fill:url(#_ÂÁ_Ï_ÌÌ_È_ËÂÌÚ_142-2);}.cls-22{fill:url(#_ÂÁ_Ï_ÌÌ_È_ËÂÌÚ_141);}.cls-23{fill:url(#_ÂÁ_Ï_ÌÌ_È_ËÂÌÚ_30-2);}.cls-24{fill:url(#_ÂÁ_Ï_ÌÌ_È_ËÂÌÚ_31-2);}.cls-25{fill:url(#_ÂÁ_Ï_ÌÌ_È_ËÂÌÚ_32);}.cls-26{fill:url(#_ÂÁ_Ï_ÌÌ_È_ËÂÌÚ_39);}.cls-27{fill:url(#_ÂÁ_Ï_ÌÌ_È_ËÂÌÚ_34);}.cls-28{fill:url(#_ÂÁ_Ï_ÌÌ_È_ËÂÌÚ_118);}.cls-29{fill:url(#_ÂÁ_Ï_ÌÌ_È_ËÂÌÚ_36);}.cls-30{fill:url(#_ÂÁ_Ï_ÌÌ_È_ËÂÌÚ_37);}.cls-31{fill:url(#_ÂÁ_Ï_ÌÌ_È_ËÂÌÚ_30-3);}.cls-32{fill:url(#_ÂÁ_Ï_ÌÌ_È_ËÂÌÚ_39-2);}.cls-33{fill:url(#_ÂÁ_Ï_ÌÌ_È_ËÂÌÚ_40);}.cls-34{fill:url(#_ÂÁ_Ï_ÌÌ_È_ËÂÌÚ_41);}.cls-35{fill:url(#_ÂÁ_Ï_ÌÌ_È_ËÂÌÚ_73-4);}.cls-36{fill:url(#_ÂÁ_Ï_ÌÌ_È_ËÂÌÚ_45);}.cls-37{fill:url(#_ÂÁ_Ï_ÌÌ_È_ËÂÌÚ_46);}.cls-38{fill:url(#_ÂÁ_Ï_ÌÌ_È_ËÂÌÚ_47);}.cls-39{fill:url(#_ÂÁ_Ï_ÌÌ_È_ËÂÌÚ_48);}.cls-40{fill:url(#_ÂÁ_Ï_ÌÌ_È_ËÂÌÚ_49);}.cls-41{fill:url(#_ÂÁ_Ï_ÌÌ_È_ËÂÌÚ_36-2);}.cls-42{fill:url(#_ÂÁ_Ï_ÌÌ_È_ËÂÌÚ_36-3);}.cls-43{fill:url(#_ÂÁ_Ï_ÌÌ_È_ËÂÌÚ_52);}.cls-44{fill:url(#_ÂÁ_Ï_ÌÌ_È_ËÂÌÚ_53);}.cls-45{fill:url(#_ÂÁ_Ï_ÌÌ_È_ËÂÌÚ_54);}.cls-46{fill:url(#_ÂÁ_Ï_ÌÌ_È_ËÂÌÚ_56);}.cls-47{fill:url(#_ÂÁ_Ï_ÌÌ_È_ËÂÌÚ_57);}.cls-48{fill:url(#_ÂÁ_Ï_ÌÌ_È_ËÂÌÚ_58);}.cls-49{fill:url(#_ÂÁ_Ï_ÌÌ_È_ËÂÌÚ_59);}.cls-50{fill:url(#_ÂÁ_Ï_ÌÌ_È_ËÂÌÚ_60);}.cls-51{fill:url(#_ÂÁ_Ï_ÌÌ_È_ËÂÌÚ_64);}.cls-52{fill:url(#_ÂÁ_Ï_ÌÌ_È_ËÂÌÚ_62);}.cls-53{fill:url(#_ÂÁ_Ï_ÌÌ_È_ËÂÌÚ_64-2);}.cls-54{fill:url(#_ÂÁ_Ï_ÌÌ_È_ËÂÌÚ_56-2);}.cls-55{fill:url(#_ÂÁ_Ï_ÌÌ_È_ËÂÌÚ_71);}.cls-56{fill:url(#_ÂÁ_Ï_ÌÌ_È_ËÂÌÚ_72);}.cls-57{fill:url(#_ÂÁ_Ï_ÌÌ_È_ËÂÌÚ_73-5);}.cls-58{fill:url(#_ÂÁ_Ï_ÌÌ_È_ËÂÌÚ_31-3);}.cls-59{fill:url(#_ÂÁ_Ï_ÌÌ_È_ËÂÌÚ_31-4);}.cls-60{fill:url(#_ÂÁ_Ï_ÌÌ_È_ËÂÌÚ_78);}.cls-61{fill:url(#_ÂÁ_Ï_ÌÌ_È_ËÂÌÚ_79);}.cls-62{fill:url(#_ÂÁ_Ï_ÌÌ_È_ËÂÌÚ_36-4);}.cls-63{fill:url(#_ÂÁ_Ï_ÌÌ_È_ËÂÌÚ_118-2);}.cls-64{fill:url(#_ÂÁ_Ï_ÌÌ_È_ËÂÌÚ_59-2);}.cls-65{fill:url(#_ÂÁ_Ï_ÌÌ_È_ËÂÌÚ_118-3);}.cls-66{fill:url(#_ÂÁ_Ï_ÌÌ_È_ËÂÌÚ_36-5);}.cls-67{fill:url(#_ÂÁ_Ï_ÌÌ_È_ËÂÌÚ_118-4);}.cls-68{fill:url(#_ÂÁ_Ï_ÌÌ_È_ËÂÌÚ_30-4);}.cls-69{fill:url(#_ÂÁ_Ï_ÌÌ_È_ËÂÌÚ_74-5);}.cls-70{fill:#0051a2;}</style><linearGradient id="_ÂÁ_Ï_ÌÌ_È_ËÂÌÚ_15" x1="-85.73" y1="703.97" x2="-84.05" y2="702.29" gradientTransform="matrix(74, 0, 0, -71, 6653.38, 50099.67)" gradientUnits="userSpaceOnUse"><stop offset="0" stop-color="#cca298"/><stop offset="1" stop-color="#cea39a"/></linearGradient><linearGradient id="_ÂÁ_Ï_ÌÌ_È_ËÂÌÚ_74" x1="-83.75" y1="704.23" x2="-81.88" y2="702.36" gradientTransform="matrix(48, 0, 0, -45, 4369.38, 31847.67)" gradientUnits="userSpaceOnUse"><stop offset="0" stop-color="#cba59b"/><stop offset="1" stop-color="#caada5"/></linearGradient><linearGradient id="_ÂÁ_Ï_ÌÌ_È_ËÂÌÚ_3" x1="-83.5" y1="703.66" x2="-81.82" y2="701.98" gradientTransform="matrix(40, 0, 0, -71, 3617.38, 50099.67)" gradientUnits="userSpaceOnUse"><stop offset="0" stop-color="#d5c0bb"/><stop offset="1" stop-color="#a68784"/></linearGradient><linearGradient id="_ÂÁ_Ï_ÌÌ_È_ËÂÌÚ_73" x1="-83.32" y1="704.02" x2="-81.64" y2="702.34" gradientTransform="matrix(48, 0, 0, -37, 4369.38, 26254.67)" gradientUnits="userSpaceOnUse"><stop offset="0" stop-color="#cca49a"/><stop offset="1" stop-color="#bd978e"/></linearGradient><linearGradient id="_ÂÁ_Ï_ÌÌ_È_ËÂÌÚ_73-2" x1="-74.33" y1="702.55" x2="-70.72" y2="698.93" gradientTransform="matrix(19, 0, 0, -37, 1858.38, 26331.67)" xlink:href="#_ÂÁ_Ï_ÌÌ_È_ËÂÌÚ_73"/><linearGradient id="_ÂÁ_Ï_ÌÌ_È_ËÂÌÚ_74-2" x1="-82.3" y1="702.22" x2="-80.51" y2="700.43" gradientTransform="matrix(42, 0, 0, -37, 3877.38, 26331.67)" xlink:href="#_ÂÁ_Ï_ÌÌ_È_ËÂÌÚ_74"/><linearGradient id="_ÂÁ_Ï_ÌÌ_È_ËÂÌÚ_74-3" x1="-83.36" y1="703.23" x2="-81.68" y2="701.55" gradientTransform="matrix(45, 0, 0, -53, 4102.38, 37516.67)" xlink:href="#_ÂÁ_Ï_ÌÌ_È_ËÂÌÚ_74"/><linearGradient id="_ÂÁ_Ï_ÌÌ_È_ËÂÌÚ_9" x1="-84.01" y1="703.49" x2="-82.12" y2="701.6" gradientTransform="matrix(43, 0, 0, -65, 3881.38, 45927.67)" gradientUnits="userSpaceOnUse"><stop offset="0" stop-color="#aa8885"/><stop offset="1" stop-color="#b19492"/></linearGradient><linearGradient id="_ÂÁ_Ï_ÌÌ_È_ËÂÌÚ_30" x1="-84.85" y1="703.31" x2="-83.17" y2="701.63" gradientTransform="matrix(55, 0, 0, -53, 4949.38, 37516.67)" gradientUnits="userSpaceOnUse"><stop offset="0" stop-color="#c9968b"/><stop offset="1" stop-color="#cb9b8f"/></linearGradient><linearGradient id="_ÂÁ_Ï_ÌÌ_È_ËÂÌÚ_11" x1="-82.37" y1="704.03" x2="-80.09" y2="701.75" gradientTransform="matrix(29, 0, 0, -65, 2609.38, 45927.67)" gradientUnits="userSpaceOnUse"><stop offset="0" stop-color="#b59086"/><stop offset="1" stop-color="#c0aaa6"/></linearGradient><linearGradient id="_ÂÁ_Ï_ÌÌ_È_ËÂÌÚ_12" x1="-86.71" y1="703.39" x2="-84.62" y2="701.29" gradientTransform="matrix(63, 0, 0, -42, 5598.38, 29789.67)" gradientUnits="userSpaceOnUse"><stop offset="0" stop-color="#c4b4af"/><stop offset="1" stop-color="#c6aca5"/></linearGradient><linearGradient id="_ÂÁ_Ï_ÌÌ_È_ËÂÌÚ_13" x1="-85.57" y1="702.66" x2="-84.2" y2="701.3" gradientTransform="matrix(63, 0, 0, -34, 5598.38, 24199.67)" gradientUnits="userSpaceOnUse"><stop offset="0" stop-color="#d3c1be"/><stop offset="1" stop-color="#ab8175"/></linearGradient><linearGradient id="_ÂÁ_Ï_ÌÌ_È_ËÂÌÚ_14" x1="-84.87" y1="702.71" x2="-83.19" y2="701.03" gradientTransform="matrix(50, 0, 0, -50, 4478.38, 35447.67)" gradientUnits="userSpaceOnUse"><stop offset="0" stop-color="#a47364"/><stop offset="1" stop-color="#bf8e82"/></linearGradient><linearGradient id="_ÂÁ_Ï_ÌÌ_È_ËÂÌÚ_15-2" x1="-84.79" y1="702.85" x2="-83.11" y2="701.17" gradientTransform="matrix(55, 0, 0, -50, 4949.38, 35447.67)" xlink:href="#_ÂÁ_Ï_ÌÌ_È_ËÂÌÚ_15"/><linearGradient id="_ÂÁ_Ï_ÌÌ_È_ËÂÌÚ_74-4" x1="-85.21" y1="702.25" x2="-83.53" y2="700.57" gradientTransform="matrix(61, 0, 0, -37, 5507.38, 26321.67)" xlink:href="#_ÂÁ_Ï_ÌÌ_È_ËÂÌÚ_74"/><linearGradient id="_ÂÁ_Ï_ÌÌ_È_ËÂÌÚ_73-3" x1="-84.67" y1="702.3" x2="-83.2" y2="700.84" gradientTransform="matrix(61, 0, 0, -39, 5507.38, 27753.67)" xlink:href="#_ÂÁ_Ï_ÌÌ_È_ËÂÌÚ_73"/><linearGradient id="_ÂÁ_Ï_ÌÌ_È_ËÂÌÚ_31" x1="-83.47" y1="701.93" x2="-80.99" y2="699.45" gradientTransform="matrix(46, 0, 0, -39, 4215.38, 27753.67)" gradientUnits="userSpaceOnUse"><stop offset="0" stop-color="#cda59c"/><stop offset="1" stop-color="#cda095"/></linearGradient><linearGradient id="_ÂÁ_Ï_ÌÌ_È_ËÂÌÚ_144" x1="-83.54" y1="699.83" x2="-82.75" y2="699.04" gradientTransform="matrix(56, 0, 0, -30, 5105.38, 21465.67)" gradientUnits="userSpaceOnUse"><stop offset="0" stop-color="#e8a59f"/><stop offset="1" stop-color="#e6b2b1"/></linearGradient><linearGradient id="_ÂÁ_Ï_ÌÌ_È_ËÂÌÚ_142" x1="-64.28" y1="702.44" x2="-59.3" y2="697.46" gradientTransform="matrix(11, 0, 0, -24, 1145.38, 17253.67)" gradientUnits="userSpaceOnUse"><stop offset="0" stop-color="#d89793"/><stop offset="1" stop-color="#c5857f"/></linearGradient><linearGradient id="_ÂÁ_Ï_ÌÌ_È_ËÂÌÚ_142-2" x1="-62.03" y1="699.77" x2="-60.47" y2="698.21" gradientTransform="matrix(11, 0, 0, -28, 1136.38, 20089.67)" xlink:href="#_ÂÁ_Ï_ÌÌ_È_ËÂÌÚ_142"/><linearGradient id="_ÂÁ_Ï_ÌÌ_È_ËÂÌÚ_141" x1="-82.75" y1="700.29" x2="-81.11" y2="698.65" gradientTransform="matrix(46, 0, 0, -28, 4214.38, 20089.67)" gradientUnits="userSpaceOnUse"><stop offset="0" stop-color="#cb8f8c"/><stop offset="1" stop-color="#db9d9a"/></linearGradient><linearGradient id="_ÂÁ_Ï_ÌÌ_È_ËÂÌÚ_30-2" x1="-85.04" y1="701.68" x2="-83.58" y2="700.21" gradientTransform="matrix(56, 0, 0, -44, 5049.38, 31279.67)" xlink:href="#_ÂÁ_Ï_ÌÌ_È_ËÂÌÚ_30"/><linearGradient id="_ÂÁ_Ï_ÌÌ_È_ËÂÌÚ_31-2" x1="-84.57" y1="701.34" x2="-82.89" y2="699.66" gradientTransform="matrix(56, 0, 0, -34, 5049.38, 24277.67)" xlink:href="#_ÂÁ_Ï_ÌÌ_È_ËÂÌÚ_31"/><linearGradient id="_ÂÁ_Ï_ÌÌ_È_ËÂÌÚ_32" x1="-83.74" y1="702.68" x2="-82.26" y2="701.19" gradientTransform="matrix(37, 0, 0, -64, 3284.38, 45297.67)" gradientUnits="userSpaceOnUse"><stop offset="0" stop-color="#cab6b1"/><stop offset="1" stop-color="#946b5d"/></linearGradient><linearGradient id="_ÂÁ_Ï_ÌÌ_È_ËÂÌÚ_39" x1="-85.98" y1="701.92" x2="-84.3" y2="700.24" gradientTransform="matrix(63, 0, 0, -38, 5622.38, 27045.67)" gradientUnits="userSpaceOnUse"><stop offset="0" stop-color="#c19182"/><stop offset="1" stop-color="#bb8d80"/></linearGradient><linearGradient id="_ÂÁ_Ï_ÌÌ_È_ËÂÌÚ_34" x1="-85.6" y1="702.18" x2="-83.92" y2="700.5" gradientTransform="matrix(63, 0, 0, -44, 5622.38, 31279.67)" gradientUnits="userSpaceOnUse"><stop offset="0" stop-color="#b78373"/><stop offset="1" stop-color="#ad7d6f"/></linearGradient><linearGradient id="_ÂÁ_Ï_ÌÌ_È_ËÂÌÚ_118" x1="-86.1" y1="702.57" x2="-84.53" y2="700.99" gradientTransform="matrix(57, 0, 0, -64, 5031.38, 45297.67)" gradientUnits="userSpaceOnUse"><stop offset="0" stop-color="#efeeee"/><stop offset="1" stop-color="#e0dbd9"/></linearGradient><linearGradient id="_ÂÁ_Ï_ÌÌ_È_ËÂÌÚ_36" x1="-86.29" y1="701.99" x2="-84.24" y2="699.94" gradientTransform="matrix(57, 0, 0, -38, 5031.38, 27075.67)" gradientUnits="userSpaceOnUse"><stop offset="0" stop-color="#d5cdc9"/><stop offset="1" stop-color="#aa938a"/></linearGradient><linearGradient id="_ÂÁ_Ï_ÌÌ_È_ËÂÌÚ_37" x1="-86.16" y1="701.97" x2="-84.48" y2="700.29" gradientTransform="matrix(64, 0, 0, -61, 5686.38, 43252.67)" gradientUnits="userSpaceOnUse"><stop offset="0" stop-color="#a68d82"/><stop offset="1" stop-color="#976c5b"/></linearGradient><linearGradient id="_ÂÁ_Ï_ÌÌ_È_ËÂÌÚ_30-3" x1="-84.8" y1="702.19" x2="-83.12" y2="700.51" gradientTransform="matrix(50, 0, 0, -61, 4465.38, 43252.67)" xlink:href="#_ÂÁ_Ï_ÌÌ_È_ËÂÌÚ_30"/><linearGradient id="_ÂÁ_Ï_ÌÌ_È_ËÂÌÚ_39-2" x1="-85.74" y1="700.88" x2="-84.06" y2="699.2" gradientTransform="matrix(66, 0, 0, -39, 5928.38, 27808.67)" xlink:href="#_ÂÁ_Ï_ÌÌ_È_ËÂÌÚ_39"/><linearGradient id="_ÂÁ_Ï_ÌÌ_È_ËÂÌÚ_40" x1="-85.37" y1="700.82" x2="-83.69" y2="699.14" gradientTransform="matrix(66, 0, 0, -37, 5928.38, 26420.67)" gradientUnits="userSpaceOnUse"><stop offset="0" stop-color="#b58575"/><stop offset="1" stop-color="#c79f94"/></linearGradient><linearGradient id="_ÂÁ_Ï_ÌÌ_È_ËÂÌÚ_41" x1="-83.49" y1="700.34" x2="-81.86" y2="698.71" gradientTransform="matrix(46, 0, 0, -37, 4205.38, 26420.67)" gradientUnits="userSpaceOnUse"><stop offset="0" stop-color="#c9a59d"/><stop offset="1" stop-color="#c0a29b"/></linearGradient><linearGradient id="_ÂÁ_Ï_ÌÌ_È_ËÂÌÚ_73-4" x1="-82.96" y1="700.45" x2="-81.26" y2="698.75" gradientTransform="matrix(46, 0, 0, -37, 4205.38, 26444.67)" xlink:href="#_ÂÁ_Ï_ÌÌ_È_ËÂÌÚ_73"/><linearGradient id="_ÂÁ_Ï_ÌÌ_È_ËÂÌÚ_45" x1="-84.82" y1="701.26" x2="-83.14" y2="699.58" gradientTransform="matrix(57, 0, 0, -53, 5127.38, 37689.67)" gradientUnits="userSpaceOnUse"><stop offset="0" stop-color="#a97765"/><stop offset="1" stop-color="#b08b7e"/></linearGradient><linearGradient id="_ÂÁ_Ï_ÌÌ_È_ËÂÌÚ_46" x1="-84.47" y1="700.72" x2="-82.79" y2="699.04" gradientTransform="matrix(46, 0, 0, -53, 4144.38, 37689.67)" gradientUnits="userSpaceOnUse"><stop offset="0" stop-color="#9c705e"/><stop offset="1" stop-color="#997d6d"/></linearGradient><linearGradient id="_ÂÁ_Ï_ÌÌ_È_ËÂÌÚ_47" x1="-86.22" y1="701.53" x2="-84.54" y2="699.85" gradientTransform="matrix(64, 0, 0, -59, 5686.38, 41876.67)" gradientUnits="userSpaceOnUse"><stop offset="0" stop-color="#a89389"/><stop offset="1" stop-color="#9f7b6c"/></linearGradient><linearGradient id="_ÂÁ_Ï_ÌÌ_È_ËÂÌÚ_48" x1="-84.55" y1="701.15" x2="-82.86" y2="699.47" gradientTransform="matrix(46, 0, 0, -50, 4102.38, 35580.67)" gradientUnits="userSpaceOnUse"><stop offset="0" stop-color="#9e8476"/><stop offset="1" stop-color="#a48071"/></linearGradient><linearGradient id="_ÂÁ_Ï_ÌÌ_È_ËÂÌÚ_49" x1="-85.83" y1="701.7" x2="-84.15" y2="700.02" gradientTransform="matrix(52, 0, 0, -59, 4584.38, 41876.67)" gradientUnits="userSpaceOnUse"><stop offset="0" stop-color="#bbaea7"/><stop offset="1" stop-color="#baaca5"/></linearGradient><linearGradient id="_ÂÁ_Ï_ÌÌ_È_ËÂÌÚ_36-2" x1="-84.34" y1="701.43" x2="-81.93" y2="699.02" gradientTransform="matrix(28, 0, 0, -43, 2420.38, 30652.67)" xlink:href="#_ÂÁ_Ï_ÌÌ_È_ËÂÌÚ_36"/><linearGradient id="_ÂÁ_Ï_ÌÌ_È_ËÂÌÚ_36-3" x1="-87.04" y1="700.03" x2="-85.35" y2="698.35" gradientTransform="matrix(66, 0, 0, -38, 5816.38, 27142.67)" xlink:href="#_ÂÁ_Ï_ÌÌ_È_ËÂÌÚ_36"/><linearGradient id="_ÂÁ_Ï_ÌÌ_È_ËÂÌÚ_52" x1="-85.51" y1="699.58" x2="-83.83" y2="697.9" gradientTransform="matrix(51, 0, 0, -38, 4538.38, 27172.67)" gradientUnits="userSpaceOnUse"><stop offset="0" stop-color="#9c7968"/><stop offset="1" stop-color="#9e7662"/></linearGradient><linearGradient id="_ÂÁ_Ï_ÌÌ_È_ËÂÌÚ_53" x1="-86.37" y1="700.15" x2="-84.69" y2="698.47" gradientTransform="matrix(66, 0, 0, -38, 5816.38, 27172.67)" gradientUnits="userSpaceOnUse"><stop offset="0" stop-color="#bda599"/><stop offset="1" stop-color="#a37965"/></linearGradient><linearGradient id="_ÂÁ_Ï_ÌÌ_È_ËÂÌÚ_54" x1="-85.09" y1="699.3" x2="-83.41" y2="697.62" gradientTransform="matrix(51, 0, 0, -35, 4538.38, 25085.67)" gradientUnits="userSpaceOnUse"><stop offset="0" stop-color="#aa7860"/><stop offset="1" stop-color="#a5816f"/></linearGradient><linearGradient id="_ÂÁ_Ï_ÌÌ_È_ËÂÌÚ_56" x1="-80.32" y1="699.98" x2="-78.48" y2="698.15" gradientTransform="matrix(22, 0, 0, -48, 1957.38, 34240.67)" gradientUnits="userSpaceOnUse"><stop offset="0" stop-color="#b3816a"/><stop offset="1" stop-color="#b78c78"/></linearGradient><linearGradient id="_ÂÁ_Ï_ÌÌ_È_ËÂÌÚ_57" x1="-85.66" y1="700.05" x2="-83.81" y2="698.19" gradientTransform="matrix(48, 0, 0, -48, 4229.38, 34240.67)" gradientUnits="userSpaceOnUse"><stop offset="0" stop-color="#ba8a74"/><stop offset="1" stop-color="#c19480"/></linearGradient><linearGradient id="_ÂÁ_Ï_ÌÌ_È_ËÂÌÚ_58" x1="-86.42" y1="701.07" x2="-84.74" y2="699.39" gradientTransform="matrix(57, 0, 0, -68, 5015.38, 48270.67)" gradientUnits="userSpaceOnUse"><stop offset="0" stop-color="#c3b6b2"/><stop offset="1" stop-color="#af8674"/></linearGradient><linearGradient id="_ÂÁ_Ï_ÌÌ_È_ËÂÌÚ_59" x1="-86.5" y1="701.25" x2="-84.86" y2="699.61" gradientTransform="matrix(54, 0, 0, -68, 4709.38, 48270.67)" gradientUnits="userSpaceOnUse"><stop offset="0" stop-color="#bba79d"/><stop offset="1" stop-color="#c2a699"/></linearGradient><linearGradient id="_ÂÁ_Ï_ÌÌ_È_ËÂÌÚ_60" x1="-86.52" y1="699.33" x2="-85.11" y2="697.91" gradientTransform="matrix(54, 0, 0, -47, 4709.38, 33554.67)" gradientUnits="userSpaceOnUse"><stop offset="0" stop-color="#ccb6a8"/><stop offset="1" stop-color="#ac8067"/></linearGradient><linearGradient id="_ÂÁ_Ï_ÌÌ_È_ËÂÌÚ_64" x1="-85.36" y1="699.1" x2="-84.03" y2="697.77" gradientTransform="matrix(35, 0, 0, -47, 3004.38, 33554.67)" gradientUnits="userSpaceOnUse"><stop offset="0" stop-color="#c39984"/><stop offset="1" stop-color="#c69c89"/></linearGradient><linearGradient id="_ÂÁ_Ï_ÌÌ_È_ËÂÌÚ_62" x1="-86.64" y1="696.88" x2="-84.88" y2="695.12" gradientTransform="matrix(54, 0, 0, -29, 4730.38, 20921.67)" gradientUnits="userSpaceOnUse"><stop offset="0" stop-color="#b0856c"/><stop offset="1" stop-color="#c0947e"/></linearGradient><linearGradient id="_ÂÁ_Ï_ÌÌ_È_ËÂÌÚ_64-2" x1="-85.59" y1="697.09" x2="-83.83" y2="695.33" gradientTransform="matrix(48, 0, 0, -29, 4229.38, 20921.67)" xlink:href="#_ÂÁ_Ï_ÌÌ_È_ËÂÌÚ_64"/><linearGradient id="_ÂÁ_Ï_ÌÌ_È_ËÂÌÚ_56-2" x1="-82.43" y1="694.53" x2="-80.55" y2="692.65" gradientTransform="matrix(27, 0, 0, -21, 2381.38, 15307.67)" xlink:href="#_ÂÁ_Ï_ÌÌ_È_ËÂÌÚ_56"/><linearGradient id="_ÂÁ_Ï_ÌÌ_È_ËÂÌÚ_71" x1="-80.42" y1="699.81" x2="-78.52" y2="697.91" gradientTransform="matrix(29, 0, 0, -37, 2677.38, 26457.67)" gradientUnits="userSpaceOnUse"><stop offset="0" stop-color="#a17d6a"/><stop offset="1" stop-color="#ac8575"/></linearGradient><linearGradient id="_ÂÁ_Ï_ÌÌ_È_ËÂÌÚ_72" x1="-82.14" y1="699.89" x2="-80.42" y2="698.17" gradientTransform="matrix(39, 0, 0, -36, 3582.38, 25754.67)" gradientUnits="userSpaceOnUse"><stop offset="0" stop-color="#c49b90"/><stop offset="1" stop-color="#b99b91"/></linearGradient><linearGradient id="_ÂÁ_Ï_ÌÌ_È_ËÂÌÚ_73-5" x1="-83.37" y1="702.85" x2="-81.69" y2="701.17" gradientTransform="matrix(49, 0, 0, -36, 4470.38, 25608.67)" xlink:href="#_ÂÁ_Ï_ÌÌ_È_ËÂÌÚ_73"/><linearGradient id="_ÂÁ_Ï_ÌÌ_È_ËÂÌÚ_31-3" x1="-83.81" y1="702.96" x2="-81.87" y2="701.02" gradientTransform="matrix(49, 0, 0, -30, 4470.38, 21370.67)" xlink:href="#_ÂÁ_Ï_ÌÌ_È_ËÂÌÚ_31"/><linearGradient id="_ÂÁ_Ï_ÌÌ_È_ËÂÌÚ_31-4" x1="-82.33" y1="702.22" x2="-80.77" y2="700.67" gradientTransform="matrix(42, 0, 0, -36, 3877.38, 25608.67)" xlink:href="#_ÂÁ_Ï_ÌÌ_È_ËÂÌÚ_31"/><linearGradient id="_ÂÁ_Ï_ÌÌ_È_ËÂÌÚ_78" x1="-85.21" y1="705.11" x2="-83.4" y2="703.3" gradientTransform="matrix(58, 0, 0, -43, 5229.38, 30372.67)" gradientUnits="userSpaceOnUse"><stop offset="0" stop-color="#e2dddc"/><stop offset="1" stop-color="#c9b3af"/></linearGradient><linearGradient id="_ÂÁ_Ï_ÌÌ_È_ËÂÌÚ_79" x1="-85.58" y1="705.12" x2="-84.02" y2="703.56" gradientTransform="matrix(74, 0, 0, -37, 6653.38, 26186.67)" gradientUnits="userSpaceOnUse"><stop offset="0" stop-color="#e4cfc8"/><stop offset="1" stop-color="#ceaba0"/></linearGradient><linearGradient id="_ÂÁ_Ï_ÌÌ_È_ËÂÌÚ_36-4" x1="-86.46" y1="700.84" x2="-84.24" y2="698.62" gradientTransform="matrix(49, 0, 0, -51, 4254.38, 36315.67)" xlink:href="#_ÂÁ_Ï_ÌÌ_È_ËÂÌÚ_36"/><linearGradient id="_ÂÁ_Ï_ÌÌ_È_ËÂÌÚ_118-2" x1="-87.34" y1="701.02" x2="-85.15" y2="698.82" gradientTransform="matrix(49, 0, 0, -43, 4254.38, 30652.67)" xlink:href="#_ÂÁ_Ï_ÌÌ_È_ËÂÌÚ_118"/><linearGradient id="_ÂÁ_Ï_ÌÌ_È_ËÂÌÚ_59-2" x1="-81.03" y1="702.5" x2="-77.41" y2="698.89" gradientTransform="matrix(14, 0, 0, -98, 1135.38, 69356.67)" xlink:href="#_ÂÁ_Ï_ÌÌ_È_ËÂÌÚ_59"/><linearGradient id="_ÂÁ_Ï_ÌÌ_È_ËÂÌÚ_118-3" x1="-84.39" y1="700.72" x2="-82.64" y2="698.97" gradientTransform="matrix(28, 0, 0, -38, 2420.38, 27104.67)" xlink:href="#_ÂÁ_Ï_ÌÌ_È_ËÂÌÚ_118"/><linearGradient id="_ÂÁ_Ï_ÌÌ_È_ËÂÌÚ_36-5" x1="-86.12" y1="701" x2="-84.58" y2="699.46" gradientTransform="matrix(54, 0, 0, -38, 4742.38, 27104.67)" xlink:href="#_ÂÁ_Ï_ÌÌ_È_ËÂÌÚ_36"/><linearGradient id="_ÂÁ_Ï_ÌÌ_È_ËÂÌÚ_118-4" x1="-86.59" y1="701.96" x2="-84.55" y2="699.92" gradientTransform="matrix(54, 0, 0, -38, 4742.38, 27075.67)" xlink:href="#_ÂÁ_Ï_ÌÌ_È_ËÂÌÚ_118"/><linearGradient id="_ÂÁ_Ï_ÌÌ_È_ËÂÌÚ_30-4" x1="382.08" y1="486.27" x2="451.03" y2="417.32" gradientTransform="matrix(1, 0, 0, 1, 0, 0)" xlink:href="#_ÂÁ_Ï_ÌÌ_È_ËÂÌÚ_30"/><linearGradient id="_ÂÁ_Ï_ÌÌ_È_ËÂÌÚ_74-5" x1="450" y1="451.46" x2="526.34" y2="375.12" gradientTransform="matrix(1, 0, 0, 1, 0, 0)" xlink:href="#_ÂÁ_Ï_ÌÌ_È_ËÂÌÚ_74"/></defs><path class="cls-1" d="M120.16,486.17l-1.1.2L62.75,514a6.12,6.12,0,0,0-2.84-2.87,6.33,6.33,0,0,0-3.2-.6v-.11h0v.12A6.23,6.23,0,0,0,56.75,523a6,6,0,0,1,1.75-.15,6.17,6.17,0,0,0,4.28-8.76ZM62.76,514,92,499.66,62.77,514Z" transform="translate(-26.62 -18.33)"/><path class="cls-1" d="M366.09,108.31h0a6.22,6.22,0,0,0-6.43-.09l-42.53-73,42.51,73a6,6,0,0,0-3.09,5L294.75,98.53,249.67,87.85a6.24,6.24,0,0,0-1.46-5.63l68.91-47-68.92,47a5.81,5.81,0,0,0-1.27-1.09,6.23,6.23,0,0,0-3.74-.92l-.16,0a6.22,6.22,0,0,0-4.73,2.88,7.29,7.29,0,0,0-.37.74l-75.12-34L128.34,34.19a3.13,3.13,0,0,0,.22-2.14,2.64,2.64,0,0,1-.17-.47,2.34,2.34,0,0,0-.09-.24l0,0v0l0,0a3.23,3.23,0,0,0-1.1-1.2,3.1,3.1,0,0,0-1-.38l.07-.29h0l-.07.28a3.17,3.17,0,0,0-3.41,1.39,3.48,3.48,0,0,0-.34.77l-.39-.13,0,0,.41.13a3.16,3.16,0,0,0,.55,2.86L95,55.57,42.21,94.65a4,4,0,0,0-1-1,3.87,3.87,0,0,0-2.48-.55l0-.28h0l0,.28a3.85,3.85,0,0,0-1.6,7.09,3.78,3.78,0,0,0,2,.58,2.65,2.65,0,0,1,.5,0h0A3.82,3.82,0,0,0,42.39,99a3.54,3.54,0,0,0,.41-.94L95.89,114a6.22,6.22,0,0,0,2.54,7L46.6,200.06a6.28,6.28,0,0,0-4.48.63v-.35l-.21.07v.4a6.12,6.12,0,0,0-2,2,6.27,6.27,0,0,0,2,8.63l.09,0a2.14,2.14,0,0,1,.78.35,6.21,6.21,0,0,0,4.82.08l64.25,60.77a6.14,6.14,0,0,0-.48.63,6.24,6.24,0,0,0-.43,5.84l-68,64.74a6.26,6.26,0,0,0-4.46-.23v-.57h0l0,.58A6.23,6.23,0,0,0,37,354.88a5.81,5.81,0,0,0,1.1.52h0a2.49,2.49,0,0,1,1.27.33,6.21,6.21,0,0,0,6.22-2.82,6.44,6.44,0,0,0,.86-2.26L118,371.07a3.2,3.2,0,0,0,.48,2.75L48,425.24a3.26,3.26,0,0,0-.91-.86,3.32,3.32,0,0,0-2.06-.49l0-.41h0l0,.43a3.33,3.33,0,0,0,.18,6.64v.17h0v-.17A3.3,3.3,0,0,0,48,429.16l25.89,18.63,49.6,35.71a6.27,6.27,0,0,0-.24,4.82l-10.51,3.84v0l10.51-3.84a5.48,5.48,0,0,0,.23.56v0a6.09,6.09,0,0,0,2.28,2.56L49.4,613.27a3.22,3.22,0,0,0-.76-.34h0a3.16,3.16,0,1,0,.81.35L125.8,491.49a6.25,6.25,0,0,0,6.64-10.6l81.84-130.5a6.26,6.26,0,0,0,6.65-10.6l82.49-131.55.15.12a4,4,0,1,0,4.2-6.7.89.89,0,0,0-.17-.08l51.85-82.67a6.25,6.25,0,0,0,6.64-10.6ZM239.14,90.78l-27.54,27-46.26,45.32a3.22,3.22,0,0,0-.63-.53,3.25,3.25,0,0,0-3.67.14l-54.29-43.08c.14-.18.29-.34.42-.54a6.24,6.24,0,0,0,.81-4.58L237.49,87.7A6.2,6.2,0,0,0,239.14,90.78Zm62.78,115.44-89.54,33.19a6.23,6.23,0,0,0-10.64-3.49l-24.28-45.37-12.25-22.87a3.09,3.09,0,0,0,1-2.17l47.49,13.43,88.18,24.95A3.94,3.94,0,0,0,301.92,206.22ZM201,243.64l-79.3,29.28a6.19,6.19,0,0,0-1.7-1.6,6.33,6.33,0,0,0-2.93-.92l24.69-55.94,20.32-46a3.27,3.27,0,0,0,3.16-.74l19.15,35.76,17.39,32.49a6.4,6.4,0,0,0-.82,1A6.25,6.25,0,0,0,201,243.64Zm10.63,103.11L169.34,358.5l-45.17,12.57a3.19,3.19,0,0,0-1.37-1.85,3.23,3.23,0,0,0-1.91-.48l-5.63-86a6.24,6.24,0,0,0,6.47-2.52L152.39,301l60,40.64-.13.17A6.23,6.23,0,0,0,211.58,346.75ZM128.19,34.5c.06-.1.09-.19.14-.29l55.44,25.12,54.15,24.53a6.24,6.24,0,0,0-.43,3.82L108,114.47a6,6,0,0,0-4.39-4.71L124.7,35.87A3.17,3.17,0,0,0,128.19,34.5ZM96.56,112.42a6.47,6.47,0,0,0-.67,1.53L42.81,98.05a3.87,3.87,0,0,0-.58-3.38L69.85,74.2,123,34.79a3.07,3.07,0,0,0,.77.71,3.27,3.27,0,0,0,.87.36L110.13,86.77l-6.57,23A6.24,6.24,0,0,0,96.56,112.42ZM46.62,200.06,98.45,121a.71.71,0,0,0,.09.07,6.24,6.24,0,0,0,8.19-1.42l36.3,28.8,18,14.27a3.41,3.41,0,0,0-.81.88,3.23,3.23,0,0,0-.41,2.5L71.87,196.52,51,203.76a6,6,0,0,0-4.34-3.7Zm31.85,41.06L47.58,211.9A6.21,6.21,0,0,0,51,203.78L108.2,184l51.61-17.87a3.26,3.26,0,0,0,1.43,2,3.48,3.48,0,0,0,.77.34l-21.94,49.72L117,270.4a6.23,6.23,0,0,0-5.18,2.25Zm39.9,129.11a3.27,3.27,0,0,0-.35.82l-1.19-.34L46.52,350.62a6.26,6.26,0,0,0-2.84-6.35,8,8,0,0,0-.78-.38L63.79,324l47.11-44.84a6.21,6.21,0,0,0,2.39,2.75,6.13,6.13,0,0,0,1.95.78l5.63,86.05A3.2,3.2,0,0,0,118.37,370.23Zm5.44,112.63a5.12,5.12,0,0,0-.31.62L48,429.14a1.58,1.58,0,0,0,.12-.15,3.33,3.33,0,0,0-.13-3.74l22.57-16.46,47.93-35a3.15,3.15,0,0,0,2.78,1.29l3,45.87,3.81,59A6.22,6.22,0,0,0,123.81,482.86Zm8.62-2a6.18,6.18,0,0,0-4.34-.84l-6.78-104.91a3.18,3.18,0,0,0,2.86-4l87.42-24.32a6.27,6.27,0,0,0,2.67,3.61Zm80-139.3-90.69-61.41c0-.08.12-.14.17-.22a6.26,6.26,0,0,0-.26-7L201,243.66a6.27,6.27,0,0,0,1.93,1.94,6.36,6.36,0,0,0,2.69.9l2,16.23,9.27,76.17A6.18,6.18,0,0,0,212.44,341.58Zm8.47-1.8a6.16,6.16,0,0,0-4.06-.88l-4.92-40.44-6.33-52a6.19,6.19,0,0,0,6.79-7.07l89.54-33.19a3.92,3.92,0,0,0,1.48,2Zm81.41-136.87a3.89,3.89,0,0,0-.42,1l-63.6-18-72.08-20.4a3.25,3.25,0,0,0-.87-2.38l9-8.78L239.15,90.8a6.31,6.31,0,0,0,1.13.92,6.23,6.23,0,0,0,6.2.23l12.59,24.1,44.68,85.52A3.89,3.89,0,0,0,302.32,202.91Zm5.27-1.34a3.91,3.91,0,0,0-3.82,0L246.5,91.94a6.24,6.24,0,0,0,2.41-2.19,6.46,6.46,0,0,0,.76-1.88l88.81,21,18.06,4.28a6.25,6.25,0,0,0,2.89,5.7Z" transform="translate(-26.62 -18.33)"/><polygon id="triangle36" class="cls-2" points="303.94 122.46 433.33 156.07 354.36 241.77 303.94 122.46"/><polygon id="triangle36-2" data-name="triangle36" class="cls-3" points="433.33 156.07 441.74 213.2 354.36 241.77 433.33 156.07"/><polygon id="triangle36-3" data-name="triangle36" class="cls-4" points="303.94 122.46 354.36 241.77 275.38 199.76 303.94 122.46"/><polygon id="triangle36-4" data-name="triangle36" class="cls-5" points="354.36 241.77 441.74 213.2 429.97 280.42 354.36 241.77"/><polygon id="triangle36-5" data-name="triangle36" class="cls-6" points="485.43 359.4 512.35 396.37 456.71 428.29 485.43 359.4"/><polygon id="triangle36-6" data-name="triangle36" class="cls-7" points="456.71 428.29 485.43 359.4 424.93 374.52 456.71 428.29"/><polygon id="triangle36-7" data-name="triangle36" class="cls-8" points="354.36 241.77 429.97 280.42 374.52 330.83 354.36 241.77"/><polygon id="triangle36-8" data-name="triangle36" class="cls-9" points="275.38 199.76 354.36 241.77 282.1 308.98 275.38 199.76"/><polygon id="triangle36-9" data-name="triangle36" class="cls-10" points="354.36 241.77 374.52 330.83 282.1 308.98 354.36 241.77"/><polygon id="triangle36-10" data-name="triangle36" class="cls-11" points="282.1 308.98 275.38 199.76 216.56 245.13 282.1 308.98"/><polygon id="triangle36-11" data-name="triangle36" class="cls-12" points="216.56 245.13 282.1 308.98 181.27 334.19 216.56 245.13"/><polygon id="triangle36-12" data-name="triangle36" class="cls-13" points="181.27 334.19 282.1 308.98 238.41 366.12 181.27 334.19"/><polygon id="triangle36-13" data-name="triangle36" class="cls-14" points="238.41 366.12 282.1 308.98 322.43 393 238.41 366.12"/><polygon id="triangle36-14" data-name="triangle36" class="cls-15" points="282.1 308.98 374.52 330.83 322.43 393 282.1 308.98"/><polygon id="triangle36-15" data-name="triangle36" class="cls-16" points="374.52 330.83 424.93 374.52 322.43 393 374.52 330.83"/><polygon id="triangle36-16" data-name="triangle36" class="cls-17" points="322.43 393 424.93 374.52 386.28 433.33 322.43 393"/><polygon id="triangle36-17" data-name="triangle36" class="cls-18" points="424.93 374.52 468.62 448.46 386.28 433.33 424.93 374.52"/><polygon id="triangle36-18" data-name="triangle36" class="cls-19" points="393 497.19 468.62 448.46 470.3 490.47 393 497.19"/><polygon id="triangle36-19" data-name="triangle36" class="cls-20" points="482.07 465.26 468.62 448.46 470.3 490.47 482.07 465.26"/><polygon id="triangle36-20" data-name="triangle36" class="cls-21" points="470.3 490.47 477.02 513.99 451.82 537.52 470.3 490.47"/><polygon id="triangle36-21" data-name="triangle36" class="cls-22" points="451.82 537.52 470.3 490.47 393 497.19 451.82 537.52"/><polygon id="triangle36-22" data-name="triangle36" class="cls-23" points="322.43 393 386.28 433.33 300.58 466.94 322.43 393"/><polygon id="triangle36-23" data-name="triangle36" class="cls-24" points="393 497.19 386.28 433.33 300.58 466.94 393 497.19"/><polygon id="triangle36-24" data-name="triangle36" class="cls-25" points="181.27 334.19 238.41 366.12 216.56 429.97 181.27 334.19"/><polygon id="triangle36-25" data-name="triangle36" class="cls-26" points="238.41 366.12 322.43 393 216.56 429.97 238.41 366.12"/><polygon id="triangle36-26" data-name="triangle36" class="cls-27" points="300.58 466.94 322.43 393 216.56 429.97 300.58 466.94"/><polygon id="triangle36-27" data-name="triangle36" class="cls-28" points="181.27 334.19 216.56 429.97 120.78 394.69 181.27 334.19"/><polygon id="triangle36-28" data-name="triangle36" class="cls-29" points="120.78 394.69 216.56 429.97 174.55 480.39 120.78 394.69"/><polygon id="triangle36-29" data-name="triangle36" class="cls-30" points="174.55 480.39 216.56 429.97 282.1 532.48 174.55 480.39"/><polygon id="triangle36-30" data-name="triangle36" class="cls-31" points="216.56 429.97 300.58 466.94 282.1 532.48 216.56 429.97"/><polygon id="triangle36-31" data-name="triangle36" class="cls-32" points="300.58 466.94 393 497.19 282.1 532.48 300.58 466.94"/><polygon id="triangle36-32" data-name="triangle36" class="cls-33" points="282.1 532.48 393 497.19 377.88 559.37 282.1 532.48"/><polygon id="triangle36-33" data-name="triangle36" class="cls-34" points="393 497.19 451.82 537.52 377.88 559.37 393 497.19"/><polygon id="triangle36-34" data-name="triangle36" class="cls-35" points="377.88 559.37 451.82 537.52 455.18 591.29 377.88 559.37"/><polygon id="triangle36-35" data-name="triangle36" class="cls-36" points="282.1 532.48 377.88 559.37 352.68 621.54 282.1 532.48"/><polygon id="triangle36-36" data-name="triangle36" class="cls-37" points="282.1 532.48 352.68 621.54 275.38 616.5 282.1 532.48"/><polygon id="triangle36-37" data-name="triangle36" class="cls-38" points="174.55 480.39 282.1 532.48 204.8 579.53 174.55 480.39"/><polygon id="triangle36-38" data-name="triangle36" class="cls-39" points="275.38 616.5 282.1 532.48 204.8 579.53 275.38 616.5"/><polygon id="triangle36-39" data-name="triangle36" class="cls-40" points="174.55 480.39 204.8 579.53 117.42 529.12 174.55 480.39"/><polygon id="triangle36-40" data-name="triangle36" class="cls-41" points="41.8 517.36 117.42 529.12 93.89 592.97 41.8 517.36"/><polygon id="triangle36-41" data-name="triangle36" class="cls-42" points="117.42 529.12 204.8 579.53 93.89 592.97 117.42 529.12"/><polygon id="triangle36-42" data-name="triangle36" class="cls-43" points="204.8 579.53 275.38 616.5 189.68 643.38 204.8 579.53"/><polygon id="triangle36-43" data-name="triangle36" class="cls-44" points="93.89 592.97 204.8 579.53 189.68 643.38 93.89 592.97"/><polygon id="triangle36-44" data-name="triangle36" class="cls-45" points="189.68 643.38 275.38 616.5 226.64 675.31 189.68 643.38"/><polygon id="triangle36-45" data-name="triangle36" class="cls-46" points="189.68 643.38 226.64 675.31 208.16 725.73 189.68 643.38"/><polygon id="triangle36-46" data-name="triangle36" class="cls-47" points="189.68 643.38 208.16 725.73 119.1 707.24 189.68 643.38"/><polygon id="triangle36-47" data-name="triangle36" class="cls-48" points="93.89 592.97 189.68 643.38 119.1 707.24 93.89 592.97"/><polygon id="triangle36-48" data-name="triangle36" class="cls-49" points="93.89 592.97 119.1 707.24 55.24 670.27 93.89 592.97"/><polygon id="triangle36-49" data-name="triangle36" class="cls-50" points="55.24 670.27 119.1 707.24 63.65 759.33 55.24 670.27"/><polygon id="triangle36-50" data-name="triangle36" class="cls-51" points="4.83 759.33 55.24 670.27 63.65 759.33 4.83 759.33"/><polygon id="triangle36-51" data-name="triangle36" class="cls-52" points="63.65 759.33 119.1 707.24 154.39 759.33 63.65 759.33"/><polygon id="triangle36-52" data-name="triangle36" class="cls-53" points="119.1 707.24 208.16 725.73 154.39 759.33 119.1 707.24"/><polygon id="triangle36-53" data-name="triangle36" class="cls-54" points="154.39 759.33 208.16 725.73 208.16 759.33 154.39 759.33"/><polygon id="triangle36-54" data-name="triangle36" class="cls-55" points="352.68 621.54 377.88 559.37 408.13 623.22 352.68 621.54"/><polygon id="triangle36-55" data-name="triangle36" class="cls-56" points="377.88 559.37 455.18 591.29 408.13 623.22 377.88 559.37"/><polygon id="triangle36-56" data-name="triangle36" class="cls-57" points="374.52 330.83 424.93 374.52 458.54 320.75 374.52 330.83"/><polygon id="triangle36-57" data-name="triangle36" class="cls-58" points="374.52 330.83 429.97 280.42 458.54 320.75 374.52 330.83"/><polygon id="triangle36-58" data-name="triangle36" class="cls-59" points="424.93 374.52 485.43 359.4 458.54 320.75 424.93 374.52"/><polygon id="triangle36-59" data-name="triangle36" class="cls-60" points="303.94 122.46 362.76 51.88 401.41 103.97 303.94 122.46"/><polygon id="triangle36-60" data-name="triangle36" class="cls-61" points="303.94 122.46 433.33 156.07 401.41 103.97 303.94 122.46"/><polygon id="triangle36-61" data-name="triangle36" class="cls-62" points="55.24 670.27 93.89 592.97 4.83 586.25 55.24 670.27"/><polygon id="triangle36-62" data-name="triangle36" class="cls-63" points="41.8 517.36 93.89 592.97 4.83 586.25 41.8 517.36"/><polygon id="triangle36-63" data-name="triangle36" class="cls-64" points="4.83 759.33 55.24 670.27 4.83 586.25 4.83 759.33"/><polygon id="triangle36-64" data-name="triangle36" class="cls-65" points="41.8 517.36 117.42 529.12 93.89 465.26 41.8 517.36"/><polygon id="triangle36-65" data-name="triangle36" class="cls-66" points="117.42 529.12 174.55 480.39 93.89 465.26 117.42 529.12"/><polygon id="triangle36-66" data-name="triangle36" class="cls-67" points="120.78 394.69 174.55 480.39 93.89 465.26 120.78 394.69"/><polygon class="cls-68" points="386.28 433.33 393 497.19 468.62 448.46 386.28 433.33"/><polygon class="cls-69" points="512.35 396.37 504.75 413.17 456.71 428.29 512.35 396.37"/><path class="cls-70" d="M70.85,531.54h0a4.72,4.72,0,0,0-2.41-.67,4.84,4.84,0,0,0-2.89,1l-12-15.22,12,15.23h0L46.78,508.09,34,491.89l31.5,40h0l0,0h0l0,0h0l0,0h0l0,0a4.79,4.79,0,0,0,.16,7.67l-.1.13v0l.1-.14a4.82,4.82,0,1,0,5.25-8.06Z" transform="translate(-26.62 -18.33)"/><path class="cls-70" d="M34,491.88h0Z" transform="translate(-26.62 -18.33)"/><polygon class="cls-70" points="26.9 498.29 7.4 473.55 20.17 489.75 26.9 498.29"/><path class="cls-70" d="M389.37,67.2a3,3,0,0,0-2.69,1.69L319.94,36.3a3.12,3.12,0,0,0-2.82-4.52A3.13,3.13,0,0,0,314,34.52L231.14,23.77a4.07,4.07,0,0,0,.07-.61,4.84,4.84,0,0,0-9.67,0c0,.14,0,.26,0,.39l-91.24,7.61a4.82,4.82,0,1,0-9.23,2.3L33.75,70.9a2.73,2.73,0,1,0-2.45,3.92h.14v68.71a4.83,4.83,0,0,0,0,9.66V228.5l-.14,0a3.06,3.06,0,0,0,0,6.11l.14,0V354.42a4.83,4.83,0,0,0,0,9.66V483a4.83,4.83,0,0,0,0,9.66v111a2.51,2.51,0,1,0,.67.1h0a2.59,2.59,0,0,0-.63-.09v-111a4.82,4.82,0,0,0,2.54-.75,6,6,0,0,0,2.22-3.54l47.08-3,34.47-2.06c0,.11,0,.21,0,.32a.77.77,0,0,0,0,.15l-.29,0v0l.29,0a2.55,2.55,0,0,0,1.16,2,1.32,1.32,0,0,1,.2.12,2.55,2.55,0,0,0,1.2.31,2.58,2.58,0,0,0,2.58-2.57,2.61,2.61,0,0,0-1-2.05l0,0h0l0,0a2.63,2.63,0,0,0-1.55-.52,2.68,2.68,0,0,0-1,.18l-.07-.17h0l.07.18s-.07.05-.11.06l-34.75-62.6a2.5,2.5,0,0,0,1.44-1.6l57.83-3.48a3.68,3.68,0,0,0,2.45,2.92l0,0h0l0,0a3.59,3.59,0,0,0,1.19.22,3.68,3.68,0,0,0,2.83-6.05h0a3.66,3.66,0,0,0-2.31-1.29l0-.07h0l0,.07a2.94,2.94,0,0,0-.51-.05,3.67,3.67,0,0,0-1.06.16l-18.08-49.61a4.82,4.82,0,0,0,2.12-4c0-.2,0-.4-.06-.6l5.86-.19-5.86.17a4.82,4.82,0,0,0-2.47-3.6L134.2,308l6-41.51a2.67,2.67,0,0,0,.64.09,2.55,2.55,0,0,0,1.75-.7l5.67,7.47-5.66-7.49a2.48,2.48,0,0,0,.76-1.8,2.44,2.44,0,0,0-.17-.9l17.62-2,35.54-4a4.82,4.82,0,0,0,4.78,4.29h.09L208,350.45a2.56,2.56,0,0,0-1,.35L148.3,273.38l58.59,77.53a2.4,2.4,0,0,0-1,1.92v.06l-69.75,2.2,69.77-2a2.41,2.41,0,1,0,2.39-2.68l-.19,0-6.88-88.88A4.81,4.81,0,0,0,205.8,258l4.08.67-4.07-.69a4.88,4.88,0,0,0,.19-1.27,4.82,4.82,0,0,0-3.49-4.62l5.13-17.72L219,195.15a2.19,2.19,0,0,0,1.51,0l21.63,65.65a3.62,3.62,0,0,0-2.45,2.85l-29.82-4.92,29.81,5.05a3.59,3.59,0,0,0-.05.46,3.65,3.65,0,1,0,3.65-3.64,3.61,3.61,0,0,0-1,.17l-21.7-65.62a2.45,2.45,0,0,0,1.53-1.65l77.44,24.45a2.93,2.93,0,0,0-.11.73,2.9,2.9,0,1,0,1.41-2.46L247.3,126.46a4.85,4.85,0,0,0,2.28-3.13l78.58,17a2.47,2.47,0,0,0-.12.72,2.28,2.28,0,0,0,1.25,2,3.52,3.52,0,0,1,.39.17,2.19,2.19,0,0,0,.67.11,2.3,2.3,0,0,0,1.5-4.05l.16-.19h0l-.15.19a2.32,2.32,0,0,0-1.49-.56h-.05L319.86,56.44,317.52,38a3.13,3.13,0,0,0,2.41-1.73l66.74,32.6a2.94,2.94,0,0,0,.78,3.6l-.13.16h0l.13-.16a2.94,2.94,0,0,0,1.91.71,3,3,0,1,0,0-6ZM231.14,23.79,314,34.53a2.58,2.58,0,0,0,0,.4A3.14,3.14,0,0,0,315,37.28l-31.72,36a4.76,4.76,0,0,0-3.17-1.21,4.81,4.81,0,0,0-3.41,1.41L229.8,26.57A4.77,4.77,0,0,0,231.14,23.79ZM226.37,28a5.05,5.05,0,0,0,.88-.08L244,117.57a4.82,4.82,0,0,0-3.83,3.72l-63.46-13.6a3.07,3.07,0,0,0,.06-.53,2.4,2.4,0,0,0-1.16-2.06l15.16-24.45,33.1-53.39A4.76,4.76,0,0,0,226.37,28Zm-96,3.58c0-.14,0-.26,0-.39l91.24-7.61a4.81,4.81,0,0,0,2.25,3.68l-48.26,77.84a2.37,2.37,0,0,0-1.26-.36,2.43,2.43,0,0,0-1.34.4l-44.8-69.51A4.83,4.83,0,0,0,130.38,31.57Zm-7,144,2.16-2.9,47.32-63.58a2.4,2.4,0,0,0,1.44.49,2.51,2.51,0,0,0,1.09-.27l43.09,81.39a2.43,2.43,0,0,0-1.19,1.85l-29-3.93-63.07-8.55c0-.21.06-.42.06-.64A4.82,4.82,0,0,0,123.39,175.58ZM35.71,146.12,94.77,103.3a4.82,4.82,0,0,0,3.89,2,4.89,4.89,0,0,0,1.28-.19l.4,1.44,18.88,68.27a4.79,4.79,0,0,0-3.26,3.08L82.1,166.39,35.69,150.63a4.86,4.86,0,0,0,.59-2.28A4.79,4.79,0,0,0,35.71,146.12Zm64.24-41a4.81,4.81,0,0,0,3.5-4.2L171.9,107a1.1,1.1,0,0,0,0,.18,2.43,2.43,0,0,0,1,1.93L144,147.82l-20.65,27.75a4.66,4.66,0,0,0-4.15-.77Zm25.6-68.7a4.74,4.74,0,0,0,2.6-.78L173,105.14a2.44,2.44,0,0,0-1,1.82l-47.24-4.19-21.21-1.89c0-.14,0-.27,0-.42A4.83,4.83,0,0,0,100.42,96l23.39-59.91A4.77,4.77,0,0,0,125.55,36.4Zm-4.43-2.92a4.78,4.78,0,0,0,2.67,2.57L100.41,96a4.79,4.79,0,0,0-6.19,2.6L33.89,72.92a2.83,2.83,0,0,0,.14-.83,2.69,2.69,0,0,0-.28-1.17ZM31.46,74.81a2.72,2.72,0,0,0,2.42-1.87l36,15.28L94.21,98.58a4.89,4.89,0,0,0-.38,1.88,4.74,4.74,0,0,0,.93,2.82L35.7,146.1a4.84,4.84,0,0,0-4.24-2.58Zm0,78.37a4.8,4.8,0,0,0,4.22-2.54l13.57,4.61L116,177.9a4.93,4.93,0,0,0-.27,1.54,4.73,4.73,0,0,0,.67,2.42L34,230.06a3,3,0,0,0-2.49-1.56Zm107,111.54-17.39,9.94L86.58,294.37a4.81,4.81,0,0,0-8.39-2.09L33.25,233.86a3,3,0,0,0,1-1.5l67.9,19.84,36.56,10.69a2.56,2.56,0,0,0-.32,1.2A2.59,2.59,0,0,0,138.45,264.72ZM120.74,356.1l-84.48,3a4.75,4.75,0,0,0-1.78-3.55l37.3-46,8-9.8a4.7,4.7,0,0,0,4.18,0l39.85,51.65a4.84,4.84,0,0,0-3,4.48C120.72,356,120.74,356,120.74,356.1ZM31.46,234.57a3,3,0,0,0,1.78-.7L78.18,292.3A4.77,4.77,0,0,0,77,295.39a4.82,4.82,0,0,0,2.69,4.31L54.27,331.08,34.47,355.5a4.83,4.83,0,0,0-3-1.08Zm0,248.4V364.08a4.81,4.81,0,0,0,3.22-1.27l47.19,51.75a2.45,2.45,0,0,0,.22,3.82L34.64,484.2A4.76,4.76,0,0,0,31.46,483Zm87.76-1.7a2.58,2.58,0,0,0-1.45,2l-15,.82-66.53,4.24a4.35,4.35,0,0,0,.06-.52,4.78,4.78,0,0,0-1.63-3.59l26.7-37L82.1,418.39a2.42,2.42,0,0,0,2.35.29ZM83.54,413.9a2.46,2.46,0,0,0-1.66.65L57.5,387.81l-22.8-25a4.83,4.83,0,0,0,1.58-3.55c0-.06,0-.11,0-.17l55.92-2,28.56-1a4.81,4.81,0,0,0,3.2,4.3L85,414.37A2.48,2.48,0,0,0,83.54,413.9Zm44.7-54,17.91,49.67a3.69,3.69,0,0,0-2.17,2.05l-.13,0v0l.12,0a3.89,3.89,0,0,0-.28,1.41,3.29,3.29,0,0,0,.05.54L86,416.76a2.5,2.5,0,0,0,.06-.38,2.48,2.48,0,0,0-1-2l39-53.95a4.92,4.92,0,0,0,1.59.29A4.78,4.78,0,0,0,128.24,359.89ZM134.63,305l-6.79,46.7a4.82,4.82,0,0,0-2.29-.6,4.73,4.73,0,0,0-1.77.35L83.93,299.74a4.79,4.79,0,0,0,2.65-5.36l24.7-14.11,27.18-15.53a2.5,2.5,0,0,0,1.76,1.77Zm4.06-42.08-55.5-16.22-49-14.31a3.11,3.11,0,0,0,.12-.81,3,3,0,0,0-.39-1.46l64.28-37.6,18.12-10.59a4.82,4.82,0,0,0,4.15,2.39,4.64,4.64,0,0,0,1.12-.14L138,252.25l2.26,9.42A2.55,2.55,0,0,0,138.69,262.87Zm57.65-6.13a4.36,4.36,0,0,0,0,.52l-53.17,5.91a2.52,2.52,0,0,0-2.34-1.6,2.59,2.59,0,0,0-.63.09l-11.66-48.6-7-28.94a4.63,4.63,0,0,0,2.34-1.34l73.7,70.63A4.81,4.81,0,0,0,196.34,256.74Zm6.16-4.62a4.93,4.93,0,0,0-1.33-.21,4.79,4.79,0,0,0-3.48,1.49L124,182.77a4.81,4.81,0,0,0,1.27-2.67l45.47,6.16,46.56,6.31a2.13,2.13,0,0,0,0,.25,2.44,2.44,0,0,0,1.72,2.32Zm17.22-61.75a2.39,2.39,0,0,0-1.21.33l-6.41-12.1-36.68-69.29a2.42,2.42,0,0,0,1.25-1.6l63.47,13.59a4.79,4.79,0,0,0,3.09,5.54l-18.54,51.92-4.2,11.74A2.44,2.44,0,0,0,219.72,190.37Zm81,25.89a2.8,2.8,0,0,0-1.13,1.54l-77.47-24.34a2.74,2.74,0,0,0,.09-.64,2.44,2.44,0,0,0-1.66-2.31l22.74-63.67a4.75,4.75,0,0,0,1.61.3,4.82,4.82,0,0,0,2.42-.67Zm-55.82-98.78a4.31,4.31,0,0,0-.88.09L227.27,27.9a4.77,4.77,0,0,0,2.51-1.31l47,46.94a4.8,4.8,0,0,0,.46,7.2L262.5,99.61l-14.69,18.9A4.78,4.78,0,0,0,244.86,117.48Zm83.31,22.79-78.59-17a4.88,4.88,0,0,0,.11-1,4.79,4.79,0,0,0-1.87-3.79l2.93-3.78,26.45-34a4.82,4.82,0,0,0,2.95,1,4.75,4.75,0,0,0,3-1l46,58.31A2.35,2.35,0,0,0,328.17,140.27ZM326.52,109l3.77,29.68a2.35,2.35,0,0,0-1.12.32l-46-58.31a4.77,4.77,0,0,0,.2-7.38l31.72-36a3.14,3.14,0,0,0,2.07.79c.13,0,.25,0,.38,0Z" transform="translate(-26.62 -18.33)"/></svg>